<svg xmlns="http://www.w3.org/2000/svg" data-name="Layer 1" viewBox="0 0 32 40" x="0px" y="0px"><title>Artboard 67</title><path d="M2,3H3.21L6.82,18.14l.26,1.09h0l0,.16A6,6,0,0,0,13,24H29a1,1,0,0,0,0-2H13A4,4,0,0,1,9.5,20H28a1,1,0,0,0,1-.8l2-10a1,1,0,0,0-.21-.83A1,1,0,0,0,30,8H6.46L5,1.77A1,1,0,0,0,4,1H2A1,1,0,0,0,2,3Zm26.78,7-1.6,8H8.84l-1.9-8Z"/><path d="M16,28a3,3,0,1,0-3,3A3,3,0,0,0,16,28Zm-4,0a1,1,0,1,1,1,1A1,1,0,0,1,12,28Z"/><path d="M28,28a3,3,0,1,0-3,3A3,3,0,0,0,28,28Zm-3,1a1,1,0,1,1,1-1A1,1,0,0,1,25,29Z"/><text x="0" y="47" fill="#000000" font-size="5px" font-weight="bold" font-family="'Helvetica Neue', Helvetica, Arial-Unicode, Arial, Sans-serif">Created by Adib Muhammad</text><text x="0" y="52" fill="#000000" font-size="5px" font-weight="bold" font-family="'Helvetica Neue', Helvetica, Arial-Unicode, Arial, Sans-serif">from the Noun Project</text></svg>